  <svg xmlns="http://www.w3.org/2000/svg" viewBox="0 0 294.08 293.27" width="100%" style="vertical-align: middle; max-width: 100%; width: 100%;">
   <g>
    <g>
     <path d="M123.15,52l.37,0C123.27,51.69,123.19,51.25,123.15,52Zm-8,11.95c19.13-7.94,41.55-7,61-1.49C157.22,56,133.1,55.32,115.17,64Zm-51.12,50.9C72.25,94,92.48,73.22,113,64.37,90.94,73.33,72.28,92.6,64.05,114.87ZM242.69,191.6c-8-6.61-6.91-7.52-7.26,3.14,2.78.41,5.19,1.15,6.15,3.53.94-2.26-1-.49-1.53-2.72C239.44,191.81,242.75,194.45,242.69,191.6ZM196.53,73.21c28.72,19.11,43.86,55.2,37.34,89.08C241.85,129.88,225,90.1,196.53,73.21Zm-48.11-28.1c3.25.74,10.83,8.67,7.88-.47C151.86,49,151.92,40.65,148.42,45.11ZM64.21,68.4c1.78-2.13,1.22.51,3.16.24,4.39-2.16,8,7.59,9.84,10.17,2.66-6.2,5.89-12.39,3.72-19.12,4.89,6.94-.56,9.7,11.78,6.12L84,58.42c-.47-.53,2.42-11.65-.09-10.61L75.4,53.06c-3.51-2.62-5,1.1-8.85,2l1.1,4.54C66.76,62.25,54.75,69.53,64.21,68.4Zm73.66-24.16-.93,5.47,9.59-5C144.51,43.59,141,45,137.87,44.24ZM89.63,210.67c-1-.9-2-1.82-2.95-2.77C86.82,209.06,88.48,210.75,89.63,210.67ZM260.2,115.84l-1.9-5.76c-2,3.09-4.27,6.44-6.43,9.44l-11.43.06c7.63,8.81,7.63,9.07,3.51,19.92,9-2.36,4.77-2.65,9.23-7-.83,1.74-1,4.79,1.37,3.21,2.38-3.17,2.29-9.32,3.23,0h-3l9.2,6.62c0-7.69-2.54-11.65,5.73-15.88-2.14-10.31-3.49,4.25-16.54-.36,14.23-5.67,3.53-3.79-2.62-4.27C254.25,117.91,257.55,116.2,260.2,115.84Zm-37,107.89c-.57.25-1-1.08-1.26-1.37C219.89,224.33,222.24,225.66,223.15,223.73Zm43.13-101.52-3.76-1.09C261.67,122.46,265.71,124.12,266.28,122.21ZM58.34,146.32c-1,22.2,12.5,52.35,26.31,62.4-23.59-23.07-31.93-59.36-21.31-90.46C59.65,124.4,58.58,137.31,58.34,146.32Zm119.29,95.19c-10.58-2.1-5.71.24-2.81,6.46C175.3,245.81,174.23,242.65,177.63,241.51ZM64.94,48.46c.1,4.12,2.5,3.09,5.5,2.41Zm139,165.3c-31.18,27.53-80.25,26.84-112.46,1.75C122.43,241.9,175.75,241.3,204,213.76ZM194.91,74.53c29.07,18.66,42.56,54.63,37.41,87.68C238.79,129.27,223.69,91.41,194.91,74.53Zm-61-6C124,59.13,95.57,80.74,85.44,91.63c14.6-5.93,31.24-18.31,52.2-21.11C136.69,65.93,136.33,61.5,133.92,68.5ZM182.49,214c-19.74,11.7-56.77,10.82-69.79.57-5,.11-16.09-.58-7.31-4.23A77.3,77.3,0,0,1,90,197.07c-18.67-16.61-24.32-53.36-14.1-78.57-1.73-5.75,13.95-15.39,5.82-19.14,6,3.3,8.27-5.54,12.6-8.27-2.21-.23-4.86,1.18-9.09.79-23.44,25.69-27.8,68.74-8.11,97.26,1.53,3.43,3.35,8,3.29,1.07,7.43,23.59,40.46,38.6,66.64,38.48C161.4,231.26,213.55,210,182.49,214Zm-30.91,11.75c1-3.64,2.54-2.6,4.42-1.48C156,228.29,152.53,227.75,151.58,225.74Zm13.57-2.4c1.5-1.84,3.85-2.29,6.57-2.13C169.18,226.17,168.18,226.94,165.15,223.34ZM156.51,70.53c4.81-4.73,2.21-6-2.68-6.32C155.82,69.31,149.89,70.36,156.51,70.53ZM152,64.08l-1,0C151.31,65.34,151.59,66.15,152,64.08Zm-10.88.07c1.74,1.81,3.43,3.71,4.62,4.35C148.28,62.72,145.68,63.94,141.07,64.15Zm26.41,2.33c-5-3.11-7.56,6.34-1.85,5.74C162.34,71.42,166.25,67.8,167.48,66.48Zm63.68,79.84c.6,9.47-2.92,20.22-4.21,27.72,13.26-35.7-2.51-79.18-33.65-98.49C214.26,90.55,231.81,116.53,231.16,146.32ZM74.46,189.65C63.53,170.71,60,143.51,66.05,122,59.12,144,62.59,170.53,74.46,189.65ZM223,191.28c-.59,1-1.21,2-1.85,3C222.05,193.14,223.38,192.76,223,191.28ZM187.5,70.09c.7.37,1.4.76,2.1,1.15C188.92,70.75,188.07,69.38,187.5,70.09ZM199,213c-5.14,2.43-9.86,6.85-15.45,9.09C189.19,220.76,194.27,216.24,199,213Zm3.32-147.41c-.71.73,10.13,2.49,10.21,2.68.23,2.2,2.77,2.81,4.48,2.26-.62,2-1.38,2-2.76,1.92l2.61,6.39c2.43-2.54,2.72-8.22,5.27-9,9.21-4.19,16.94,3.33,4.28-10.22l2.72-11.1-5.43,2.38c.65,4.47-3.59,1-3.4,4.7-.54-.55-.21-2.13.53-3.43-1.78,2.8-10.21-4.52-11.89-5.06C211.6,62.17,208.69,57.81,202.36,65.56Zm-20.42,3.72c.52,1.65,8.18,4,10.79,6.44C190,72.44,185.09,71.21,181.94,69.28ZM84.33,86.44a99.23,99.23,0,0,1,50.86-26A86.09,86.09,0,0,0,84.33,86.44Zm-.23,4.17c-7.3,6.63-14.21,18.3-16.48,28.07A84.07,84.07,0,0,1,84.1,90.61ZM32.22,171.7c4.19,12.74,2.46,12.57,10,1.41l11.43-.06C46,164.21,46,164,50.16,153.13c-10.77,4.54-11,4.46-20-2.82l.12,4.1c3-.7,2.74,3.93.09,2.74,2.12,5.31-6.07,8.75-9.08,11.35ZM196.33,279.35a140.83,140.83,0,0,1-26.19,6.9C177.48,286.12,191.38,282.4,196.33,279.35ZM17.09,203.22q-2.13-4.87-3.89-9.9A19.56,19.56,0,0,0,17.09,203.22ZM1.38,165.34l.18,1.34C2.38,167.23,2,164.35,1.38,165.34Zm255.88,74.57c-11.2,11.2-23.22,23-37.21,30.73C233.82,264.19,246.77,251.71,257.26,239.91ZM247.32,46.05C231.15,11.12,102.89-21,50.81,41.57,101.88-6.92,196-8.8,247.32,46.05ZM11.39,112.68c3.54.79,4.5,6.59-1.37,6.12,0,3.54-5.24,19.17.26,15.82-8.1,32.17,4,66.88,27.48,98.76,6.9-1.74,11.53,3.92,4.5,5.34,31.83,35.29,82.19,57,139.22,43.06-8.86.29,4.68-6.93,1.29-.34,25.8-7.32,42.91-17.91,61.12-34.42-4.76,4-10,0-12.84,3.33.07,3.92-6.5,3.25-9.76,7.21,6.84,8.68-15.76,4.69-11.57,9.31-6.15-1-29,11.67-46.09,12.14,2.68.28,5.38,1.19,7.82,1.08-4.24,2.75-19.89,3.35-12.49-.6C53.46,293.52-30.22,163.84,38.12,68.75,21.7,66.11,17,99.69,11.39,112.68ZM8.81,152.27c1.72-3-1.45-7.47,2.2-7.35C12.19,147.23,10.66,151.66,8.81,152.27ZM155.26,280.09c-.94,3.81-1.52,4.62-3.68,2.94C150.82,278.11,153.87,280.76,155.26,280.09Zm-21.34,0c-.08,3.76-2.46,2.93-4.42,2.94C128.81,277.73,132.4,281,133.92,280.09ZM3.59,160.12a146.92,146.92,0,0,1-.48-20.88C2,145.39,2.06,154.55,3.59,160.12Zm286.2,19.1a143.46,143.46,0,0,1-5.08,17.21C287,192.94,290.56,181,289.79,179.22Zm-10.47,18.42c3.15-4.38,4.19-11.89,6-17.5C282.72,185.42,281.91,192.1,279.32,197.64ZM170,291c10-.06,23.57-5.16,33.93-9.14C192.94,285.08,181.81,289.54,170,291ZM2.87,174.6C7.31,195.85,16,218.18,30,234.32,16.17,217,8,194.7,2.87,174.6ZM174.5,45.23c-8.52,12.2.92,4.6,7.42,5.31L189.6,59l2-11.24A5.13,5.13,0,0,0,192,37.64c-1.44-13.35.21-12.8-9.5-3.46L171.3,31.85l4.1,8.51C181.48,39.69,176.17,45.13,174.5,45.23Zm19.77-6.12c0,10.82-6.5,3.78-8.1-1.46C187.71,36.54,190.23,38.94,194.27,39.11ZM61.06,30.05c72-69.76,276.17-1.27,221.11,166.59,6.95-14.68,9.12-33.2,9.46-50.32C296,30.82,149.78-41.11,61.06,30.05ZM254.13,45.76C285,79.6,301.06,130.33,290.27,177,301.76,131.46,286.56,79.88,254.13,45.76Zm-193.07-18c-4.56,1.53-11.3,8.84-16.11,13C50.38,37.25,55.35,31.38,61.06,27.77ZM.77,140c-1.23,4.56-.93,15.35.5,20.19A147.76,147.76,0,0,1,.77,140ZM250.6,249.86c-8.17,8.94-19.9,16.16-28.33,22.7,27.8-16.47,50.6-43.44,61.94-73.42C276.24,216.38,265.69,235.56,250.6,249.86ZM47,57.67c8.09-8.28,15.34-14.81-.08-8.75C44.44,52.2,33.35,68.61,47,57.67ZM168.74,73.06a75.68,75.68,0,0,1,27,14.42c.26-6.54,3.09-1.36,3.68-1.35,7.7.24,5.26,1.88-3.52,1.48,25.06,20.28,34.31,56.73,22.31,86.52C252.17,156.11,209.64,60.62,168.74,73.06ZM29.08,66.74c-5.72,9.13-12.64,19.83-14.84,29.71C17.46,86.2,24.92,75.15,29.08,66.74Zm25.83,7.47c-6.73,9.55-6.94,9.6-18.49,8.23C39.49,90.14,46.69,92.89,53.7,95c-8.42.06-13.37-1.78-15.16,7.61l11-3.1c8.31,7.8,9.51,7.09,9.24-4.12,11.37-7.15,11.59-5.42-1.06-10.06ZM97.49,40.58c-3-.23-5.65,3.34-.23,4.82.75-4.77,2.31-1.3,4.28-3.35.26,3.27-.63,4.2-1.89,4.43,3.81.85,2.52,2.89,3.75,4.79-1.5-5.67,1.84-4.65,2,0-3.56.44-.92,5.39-.86,7.72.8-1.86,8.59-6.57,2.18-6.65,1.61-9.14,5.79-.24,9.57-1.25,2.58-4.62,7.68.38,3.17-6.18-8,.12-25.84.33-6.39-4.85a28.42,28.42,0,0,0-5-.55c7.06-2.77,13,.89,14.81-7.66l-11.19,2.33c-1.31-1.63-2.1-1.52-2.31,1-.6-2.63-.19-4.4-3.25-6.37-5.76,1-1.56,7.9-5.57,9.65C104,38.31,99.48,41.06,97.49,40.58ZM5.27,147.85A142,142,0,0,1,7.76,119.6C5.28,127.46,4.14,139.82,5.27,147.85ZM32.4,58.22c-.6.77-1.2,1.55-1.78,2.34C31.34,60.78,33.51,58,32.4,58.22Zm1.78,1.47a.92.92,0,0,0,.39-.51Zm238.72,138c.88-2.59,2.57-1.6,4.45-.74a136.44,136.44,0,0,0,4.88-15.11c-5.56,1.67-1.08-11.23,2.42-11.1,9.19-45.7-10.16-95.93-38.8-123.22C195.64-4.79,105.94-6.93,53.3,42.72c7.73,2.2,6.88-3.18,12-3.21C139.69-17,258.12,19.71,278,119.18c9.87,37.43-4.32,91.2-36.11,121.36-1.9,11.12,6-1.81,3.2,5.3C252.43,235.6,279.24,212.3,272.9,197.69Zm2-103.67c-2.38-.78-.35-.92,1.32,0C277,98.73,272.85,98.25,274.86,94ZM256.47,225.47c1.31-3.79,3-.31,5.91-1.06C260.68,226.14,258.26,226.68,256.47,225.47Zm-26-1.2c-12.9,7.08-7.65,1.5-18.37.24l-5.61,1.22c-.24,3.55-2.51,3.7-1.78.38l-3.27.71c9.31,7.05,9.35,7.28,7.58,18.76l9.5-5.87c-.54-1.39-2.72,2.84-3.61-.75,2.31-4.29,7.48-1.32,5.64,1.41.7.14,7.82,3.88,8.49,3.12l-2.55-10.42C226.85,230.93,239.31,222.93,230.43,224.27ZM47.83,209.44c8.29,10.55,6.61,11,9.9-2.1l10.72-4c-10.21-5.69-10.27-5.9-10.12-17.52-4.6,3.37-6.3,4.72-5.51,10.76-1.67.79-2-2.18-1.62-4.84-.8,3-11.07-1.69-12.66-1.72l4.23,10.62C35.31,211.83,34.38,210.36,47.83,209.44ZM53.47,203c-.55,3.82-1.61.13-3.94,1.07C49.91,200.58,52,202.57,53.47,203ZM35,52.09c-1.53.36-6.45,6.63-6.43,8.2Q31.59,56.09,35,52.09ZM182.49,258.45c9.69,9.3,8.06,9.94,9.5-3.46l9.41-5.05c-4.48.34-8.61,0-3.17-2.08-8.76-2.29-7-7.07-8.63-14.22-2.64,2.5-7.37,10.54-12,7.87-2.16,5.58,2,10.23,5.25,7.48.41,3-3.7,4.17-7.54,3.38C169.06,263,174,260.09,182.49,258.45ZM88.1,225.82c2.64,5.94-3.65,4.58-1-.23l-5.51-1.19c-5.07-12.41-3.33-12.38-10.1-.71-13.36,1-12.8-.67-3.78,9.38l-2.72,11.1c7.36-3,9.89-6.65,17.1-.49,2.71-.6,1.46,1,3.09,1.9l-.4-4c-4.62,2.54-3.32-5.34-.42-4.21-2.48-3.44,6.81-8.7,8.4-10.59Zm59,48.24c5.27-11.51,4.23-10.91,16.37-11.89-9.12-8.3-8.76-7.22-6.25-19.25-.69.17-10.62,6.33-11.09,4.81-1.35,1.05-4.22-1.76-4.57.2.3-3.6-2-3.48-4.57-5l1.93,11.27c-8,8.34-11.87,7.87,2.23,9.49-2-1.6,3.43-2.12,1.06-2.94.1-2.66,2.23-.31,2.63,0,0,1.79-4.39,1.53-2.79,3.07,1.65.41,4.86-3.82,5.17,3.06-1.41-.71-2.72-1.63-4.48-1.65Zm-8.83-13.32c.07-2.72,2.45-2.52,3.29-1.06C141.44,262.4,139.06,262.21,138.22,260.74ZM212.8,196c3.16-6.09,17-19.91,4.82-20.37a77,77,0,0,1-26,32.74c1.93,0,7.94-1.26,3.47,1.26,7.2,1.53,11.35-7,15.93-11.37-1.06-.72-2.09-2.29-2.51.53C206.62,195.59,211.3,193.77,212.8,196ZM6.26,166.91c1.08-.32-.27-3.19-.09-4.42C5.16,163.34,6.35,165.58,6.26,166.91Zm283.06-20.59c-.24-16.67-2.87-36.83-9.49-50a143.4,143.4,0,0,1,5.44,81.86C288.71,169.61,289,156.73,289.32,146.32ZM279.06,93.09a141,141,0,0,0-22.51-37.61A234.72,234.72,0,0,1,279.06,93.09ZM217.57,269.4c13.49-6.14,25.94-17.88,36.32-29.14C243,250.68,231.13,262.18,217.57,269.4Zm61.66-70.29C272.68,212,266.08,225.7,256.05,237,266.37,226.84,273.51,212.42,279.23,199.11ZM3.92,166.87c1,0-.09-2.3.05-3.17C3,164.22,4,165.9,3.92,166.87ZM11,97.22c-4.15,12.53-8.51,27.83-7.79,40.51C3.53,123.77,7.8,109.88,11,97.22Zm12-28.8C9.51,87.71,1.11,114.05.89,137.44A145.33,145.33,0,0,1,23,68.42ZM49,40.67c.53-1.59-.8.26-1.4.67C48.27,41.68,48.59,41,49,40.67ZM5.94,160.4c-.26-2.6-.43-5.22-.55-7.85C4.92,154.84,4.72,158.8,5.94,160.4Zm26.28-39.47c-12.89,3.74-12.64,2-1.75,10l-.35,11.43c9.09-7.33,9.33-7.31,20-2.82-4.16-10.91-4.07-11.13,3.51-19.92l-11.43-.06C34.7,108.42,36.42,108.12,32.22,120.93ZM35.7,54.81c.3-.22.17-.49.07-.8C35.47,54.34,35.25,54.5,35.7,54.81Zm85,190.75,2.86-5-11.33,1.53-7.68-8.45c-1.45,11.58-1.64,11.74-12.46,15.94L102.12,255c1.44,13.35-.22,12.81,9.5,3.46l11.19,2.33C120.56,254.48,114.36,250.39,120.66,245.56Zm-11.35,13.05c-2.35.1-2.61-5.72,0-4.27Zm-96-159.46c-2.62,3.3-3.42,10.6-4.93,15.38C10.65,109.85,11.13,104.06,13.26,99.15ZM12.3,95a141.9,141.9,0,0,1,14.82-28.7A84.08,84.08,0,0,0,12.3,95ZM152.11,28.82c-5.93-12.06-4.18-12.09-10.11,0-13.29,1.91-12.8.24-3.13,9.62-3.56,7.17,11.7-.94,16.67,1.76-1.91-1.75,7.27-8.63,7.88-9.74Zm-10.6,10.69c.07-2.73,2.19-2.12,3.94-2.14C146.07,41.23,142.86,38.87,141.51,39.51Zm.5-4.8c.78-5.9,3,.19,5.89-1.47C147.5,38.41,143.63,35.59,142,34.71ZM24.5,65.26a4.15,4.15,0,0,0-1,2.39C23.71,66.92,25.38,65.68,24.5,65.26Zm20.65,183c-3.35-2.73-5.91-7.43-9.24-9.43,31.71,38.44,84.57,59.38,133.45,49.93A144,144,0,0,1,45.15,248.22Zm-9.79-10.81c-14.88-17.68-23.65-38.24-29.5-60.18C4.19,178.13,21.93,228.29,35.36,237.41Zm246.91-39.72c-5.88,12-13.23,28.05-23.33,39.48C269.42,226.5,276.62,211.55,282.27,197.69Zm-82.86,83a143.15,143.15,0,0,1-28.94,7.88C178.22,288.43,193.83,284.09,199.41,280.66ZM250.6,42.77C214.63-2.1,115.86-18.07,63,26.37,118.78-14.21,202.5-7.17,250.6,42.77ZM43.51,249.86c-3.79-3-7.63-9.53-10.71-11.21,31.85,39.86,83.85,60.4,134.34,53.19C123.54,296.88,75.39,283,43.51,249.86Zm163.63,30.07c.66.83,11.69-4.71,12.2-6.19C215.37,276,211.29,278.06,207.14,279.93ZM169.74,64.84c-1.8-.17-6.52-2.35-7-1.15C165.09,63.79,167.66,65.44,169.74,64.84ZM67.94,264.6C96.8,284,135.85,293.52,170,286.28,134.71,292.8,96.26,282.55,67.94,264.6ZM210.06,276c-.75.61-2.58.66-2.55,1.72C208.21,277.15,210.37,277,210.06,276ZM39.35,238.57c5.37,8.65,18.66,19,28.34,25.86C58.29,256.53,47.34,248.59,39.35,238.57ZM8.86,178.28c-.8,2.63,2,8.24,2.74,11.75C11.71,186.34,9.35,182.2,8.86,178.28Zm27.31,56.44A140.89,140.89,0,0,1,17.39,203.9C20.8,214.13,29,227.54,36.17,234.72Zm167.71,44.11a4.86,4.86,0,0,0,3.53-1.57C206.24,277.8,205.07,278.32,203.88,278.83Zm5.66-5.15q-4.72,2.31-9.6,4.28C202.84,277.67,207.73,275.62,209.54,273.68ZM7.49,171.6c-.67.55-.12,3.73.71,3.69C8,174.06,7.71,172.83,7.49,171.6ZM211,276.08c1.81-.89,3.61-1.83,5.39-2.8A8.94,8.94,0,0,0,211,276.08ZM60.34,146.32C60,168,70.23,193.84,85,206.26c-21.86-22.13-29.75-56.16-20.33-85.73C61.4,126,60.59,138.13,60.34,146.32ZM147.05,233A86.45,86.45,0,0,0,183,225.29c-28.63,11.91-64.18,9.19-88.78-10.8C108.22,227.15,128,232.74,147.05,233ZM65.63,116.37C69.7,108.8,74.71,97.06,82,89.64,74.9,95.52,69.31,107.17,65.63,116.37Zm142.74,91.26a87.14,87.14,0,0,0,8-9.16C213.92,200.25,202,213.93,208.37,207.63Zm-6.82,5.55c-5.29,4.84-12.11,7.72-17.65,11.68C189.42,221.94,199,217.22,201.55,213.18Zm13.09-16.09c-2.66,1.43-8.09,9.81-12.55,12.77C207.1,207.21,210.87,201.49,214.64,197.09ZM136.05,60.29a129.32,129.32,0,0,1,36.66,3.15A87.87,87.87,0,0,0,136.05,60.29Zm89.23,116.94a84.24,84.24,0,0,1-8.52,16.1C220.38,189.58,224.68,181.67,225.28,177.23Zm6.51-14.71a85.62,85.62,0,0,1-3,11.45C230.64,171.51,232,165.83,231.79,162.52Zm-7.77,28c-.07.12,0,.06,0,0C223.83,190.49,223.76,190.52,224,190.51Zm4-13c-2,1.81-2.65,6.2-4.47,8.76C225.88,184.46,226.6,180.2,228,177.46Zm2.13,0c-2,1.86-2.56,6.16-4.34,8.73C228.05,184.64,228.77,180.14,230.16,177.47Zm-20.37,31.58c2.52-3.05,6.6-6,7.72-9.57C216.22,202,207.32,210.31,209.79,209.05Zm11.39-18.58c-.5.84-1,1.67-1.55,2.49C220.29,193.39,222.26,190.16,221.18,190.47Zm12.76-26.13c-1.63,1.65-1.61,6.78-3,9.51C232.93,171.86,233,167.28,233.94,164.34Zm17.93,8.77c7.53,11.1,5.82,11.4,10-1.41l11-3.2c-9.79-6.39-9.84-6.61-8.87-18.19l-8.24,5.93c-1.29,4.72-6.9,8.1-7.82.84a9.63,9.63,0,0,0,5.35-.61L244,153.13,247.43,164c-2.12,5.19-13.47,10.47-.16,9.07C247.85,169,250.69,172,251.87,173.11ZM235.5,207c1.19-.68,3.41,11,3.7,11.41,6.71-9.55,7-9.61,18.48-8.23-7-9.35-7-9.58-2.11-20.13-1.6.08-11.78,4.6-12.58,1.79,1.8,6.24-1.54,6.87-1.63,13.32-.33-7.8-14.59-6-9.2-4.27,1.82,4.46-4.84,1.3-2.66,3.9,1.44.23,4,2.51,3.32-.7-.19,1.71.46,2.35,2,2.68-.55-1.68,1.18-6.63,1.24-3.75,3.66-5.2-.52,2.42,3.29,1.07C236.41,213.92,236.7,204.07,235.5,207ZM242,204.1c3.09-.38,3.46-1.86,2.64,3.2C243.09,205.15,241.57,209.15,242,204.1Zm5.31-31h1A1.27,1.27,0,0,0,247.32,173.09Zm-1-89.9-7.08-9C238,77.59,237.65,87,232.41,86.76c2,2.54-3.75,3.37-3.69,1.36-8.38.87,5.93,5.57,6.6,7.23l.46,11.42c8.55-7.94,8.8-7.94,19.79-4.2L251.34,92C258.8,80.8,259.74,82.28,246.28,83.19Zm-91-20.58c1.57-.61-3.32-1-2.26-.19Zm-3-.7c-.59.11-2.56-.55-1.92.37C150.94,62.14,152.31,62.8,152.24,61.91Zm-4-.15a82.84,82.84,0,0,0-9.21.37A21.17,21.17,0,0,0,148.23,61.76Zm72.42,158.49-3.75-6.43C213.5,220.93,215,218.73,220.65,220.25Zm-86.74-157c-17,1.24-37.39,12.14-48,25.37A83.94,83.94,0,0,1,133.91,63.24Zm45.8,161.08c-37,15.46-83,0-103.67-32.13C96.09,225.2,143.27,240.69,179.71,224.32ZM86.34,211c.51.48,1,1,1.55,1.43C88.36,211.88,86.19,209.86,86.34,211ZM197,45.33l4.09-1.84C199.36,43.22,197.4,41.91,197,45.33Zm21.68,149.09c-.28.24-.15.55,0,.79C219,194.64,219.81,194,218.67,194.42Z" fill="rgb(242,99,86)">
     </path>
    </g>
   </g>
  </svg>
