<?xml version="1.0" encoding="utf-8"?>
<!-- Generator: Adobe Illustrator 23.0.3, SVG Export Plug-In . SVG Version: 6.00 Build 0)  -->
<svg xmlns="http://www.w3.org/2000/svg" xmlns:xlink="http://www.w3.org/1999/xlink" x="0px" y="0px" viewBox="0 0 45 40" style="enable-background:new 0 0 45 40;" xml:space="preserve">
<g>
	<polygon style="fill:#F52756;" points="35,10 35,5 30,5 30,10 25,10 25,15 20,15 20,10 15,10 15,5 10,5 10,10 5,10 5,15 5,20    10,20 10,25 15,25 15,30 20,30 20,35 25,35 25,30 30,30 30,25 35,25 35,20 40,20 40,15 40,10" />
	<g>
		<rect x="10" width="5" height="5" />
		<rect x="5" y="5" width="5" height="5" />
		<polygon points="5,10 0,10 0,15 0,20 5,20 5,15" />
		<rect x="5" y="20" width="5" height="5" />
		<rect x="10" y="25" width="5" height="5" />
		<rect x="15" y="30" width="5" height="5" />
		<rect x="20" y="35" width="5" height="5" />
		<rect x="15" y="5" width="5" height="5" />
		<rect x="20" y="10" width="5" height="5" />
		<rect x="30" width="5" height="5" />
		<rect x="35" y="5" width="5" height="5" />
		<polygon points="40,10 40,15 40,20 45,20 45,15 45,10" />
		<rect x="35" y="20" width="5" height="5" />
		<rect x="30" y="25" width="5" height="5" />
		<rect x="25" y="30" width="5" height="5" />
		<rect x="25" y="5" width="5" height="5" />
	</g>
</g>
</svg>
